<svg xmlns="http://www.w3.org/2000/svg" width="13.09" height="16" viewBox="0 0 13.09 16">
  <defs>
    <style>
      .cls-1 {
        fill: #fff;
      }
    </style>
  </defs>
  <path id="Shape" class="cls-1" d="M6.546,16h0A9.045,9.045,0,0,1,0,7.273V2.909L6.546,0l6.545,2.909V7.273A9.045,9.045,0,0,1,6.546,16Zm0-7.658c-2.406,0-4.364.979-4.364,2.182a7.469,7.469,0,0,0,.633,1.112,7.069,7.069,0,0,0,3.731,2.851,7.068,7.068,0,0,0,3.73-2.851,7.386,7.386,0,0,0,.633-1.112c0-.581-.454-1.129-1.279-1.542A7.058,7.058,0,0,0,6.546,8.342Zm0-5.433A2.182,2.182,0,1,0,8.727,5.091,2.185,2.185,0,0,0,6.546,2.909Z" transform="translate(0)"/>
</svg>
