<svg id="Shape_2" data-name="Shape 2" xmlns="http://www.w3.org/2000/svg" width="16" height="9.454" viewBox="0 0 16 9.454">
  <defs>
    <style>
      .cls-1 {
        fill: #fff;
      }
    </style>
  </defs>
  <path id="Shape" class="cls-1" d="M16,9.455H13.819V8a2.615,2.615,0,0,0-.488-1.477C14.563,6.738,16,7.317,16,8.24V9.453Zm-3.637,0H3.636V8C3.636,6.568,6.477,5.819,8,5.819S12.363,6.568,12.363,8V9.453Zm-10.182,0H0V8.24c0-.925,1.438-1.5,2.669-1.717A2.615,2.615,0,0,0,2.182,8V9.453Zm10.182-4.24a1.806,1.806,0,0,1-1.52-.829,3.545,3.545,0,0,0,.793-2.2,2.24,2.24,0,0,0-.029-.436,1.776,1.776,0,0,1,.756-.167,1.818,1.818,0,1,1,0,3.636Zm-8.727,0a1.83,1.83,0,0,1-1.285-.533,1.818,1.818,0,0,1,1.285-3.1,1.756,1.756,0,0,1,.757.167,2.173,2.173,0,0,0-.03.436,3.55,3.55,0,0,0,.793,2.2A1.8,1.8,0,0,1,3.636,5.215ZM8,4.363a2.182,2.182,0,1,1,2.182-2.182A2.184,2.184,0,0,1,8,4.363Z"/>
</svg>
