<svg xmlns="http://www.w3.org/2000/svg" width="16" height="12.522" viewBox="0 0 16 12.522">
  <defs>
    <style>
      .cls-1 {
        fill: #fff;
      }
    </style>
  </defs>
  <path id="Shape" class="cls-1" d="M15.3,12.522H11.13a.7.7,0,0,1-.7-.7V4.87a.7.7,0,0,1,.7-.7H15.3a.7.7,0,0,1,.7.7v6.956A.7.7,0,0,1,15.3,12.522ZM11.826,5.566v4.869h2.783V5.566ZM9.043,11.13H1.391A1.393,1.393,0,0,1,0,9.739V1.391A1.393,1.393,0,0,1,1.391,0H13.217a1.393,1.393,0,0,1,1.391,1.391V2.783H11.826V1.391H2.783V9.739h6.26v1.39Z"/>
</svg>
