<svg xmlns="http://www.w3.org/2000/svg" width="163.826" height="34.834" viewBox="0 0 163.826 34.834">
  <defs>
    <style>
      .cls-1 {
        fill: #fff;
      }

      .cls-2 {
        fill: #5265e8;
      }
    </style>
  </defs>
  <g id="livecaller" transform="translate(-0.044 -0.116)">
    <g id="Group" transform="translate(43.724 8.28)">
      <path id="Path" class="cls-1" d="M0,0H4.474V12.275h7.554v3.544H0Z" transform="translate(0.087 2.353)"/>
      <path id="Shape" class="cls-1" d="M4.779,18.186H.48V5.927h4.3V18.185ZM2.629,4.576A2.4,2.4,0,0,1,0,2.281,2.365,2.365,0,0,1,2.629,0a2.344,2.344,0,0,1,2.63,2.222A2.394,2.394,0,0,1,2.629,4.576Z" transform="translate(13.204)"/>
      <path id="Path-2" data-name="Path" class="cls-1" d="M14.541,0,9.471,12.26H5.041L0,0H4.416L7.35,7.481,10.444,0Z" transform="translate(19.131 5.927)"/>
      <path id="Shape-2" data-name="Shape" class="cls-1" d="M7.19,12.667a7.639,7.639,0,0,1-5.235-1.8A6.046,6.046,0,0,1,0,6.3C0,2.651,2.853,0,6.783,0a6.8,6.8,0,0,1,4.573,1.62,6.036,6.036,0,0,1,1.935,4.626L4.532,7.916A2.76,2.76,0,0,0,7.322,9.384a3.922,3.922,0,0,0,2.832-1.061l2.237,2.353A6.583,6.583,0,0,1,7.19,12.667ZM6.827,3.05A2.533,2.533,0,0,0,4.213,5.723L9.2,4.75A2.345,2.345,0,0,0,6.827,3.05Z" transform="translate(33.672 5.723)"/>
      <path id="Path-3" data-name="Path" class="cls-1" d="M0,8.236C0,3.414,3.69,0,8.7,0a8.361,8.361,0,0,1,6.813,2.992L12.667,5.564A4.663,4.663,0,0,0,8.934,3.7,4.252,4.252,0,0,0,4.518,8.222a4.252,4.252,0,0,0,4.416,4.518,4.684,4.684,0,0,0,3.733-1.859l2.847,2.571A8.4,8.4,0,0,1,8.7,16.444C3.69,16.473,0,13.059,0,8.236Z" transform="translate(48.357 2.034)"/>
      <path id="Shape-3" data-name="Shape" class="cls-1" d="M6.014,12.667a5.912,5.912,0,0,1-4.254-1.71A6.443,6.443,0,0,1,0,6.3,6.353,6.353,0,0,1,1.76,1.692,5.942,5.942,0,0,1,6.014,0,4.589,4.589,0,0,1,9.427,1.264V.2h4.3v12.26h-4.1v-1.22A4.409,4.409,0,0,1,6.014,12.667Zm.915-9.253A2.6,2.6,0,0,0,4.358,6.3c0,1.755,1.033,2.934,2.571,2.934S9.5,8.059,9.5,6.3A2.6,2.6,0,0,0,6.929,3.414Z" transform="translate(64.511 5.723)"/>
      <path id="Path-4" data-name="Path" class="cls-1" d="M0,12.478V0H4.3V12.26a1.239,1.239,0,0,0,1.336,1.409,2.341,2.341,0,0,0,.973-.232l.174,3.239A6.169,6.169,0,0,1,4.765,17C1.8,16.981,0,15.427,0,12.478Z" transform="translate(80.998 1.409)"/>
      <path id="Path-5" data-name="Path" class="cls-1" d="M0,12.478V0H4.3V12.26a1.239,1.239,0,0,0,1.336,1.409,2.341,2.341,0,0,0,.973-.232l.174,3.239A6.169,6.169,0,0,1,4.765,17C1.8,16.981,0,15.427,0,12.478Z" transform="translate(89.321 1.409)"/>
      <path id="Shape-4" data-name="Shape" class="cls-1" d="M7.19,12.667a7.638,7.638,0,0,1-5.229-1.8A6.043,6.043,0,0,1,0,6.3C0,2.651,2.853,0,6.783,0a6.8,6.8,0,0,1,4.573,1.62,6.036,6.036,0,0,1,1.935,4.626L4.532,7.916A2.76,2.76,0,0,0,7.322,9.384a3.97,3.97,0,0,0,2.832-1.061l2.237,2.353A6.583,6.583,0,0,1,7.19,12.667ZM6.813,3.05A2.533,2.533,0,0,0,4.2,5.723L9.181,4.75A2.345,2.345,0,0,0,6.813,3.05Z" transform="translate(96.657 5.723)"/>
      <path id="Path-6" data-name="Path" class="cls-1" d="M8.207,0V3.864a8.1,8.1,0,0,0-.973-.073c-1.743,0-2.934.886-2.934,3.036v5.636H0V.2H4.1V1.671A5.034,5.034,0,0,1,8.207,0Z" transform="translate(111.938 5.723)"/>
    </g>
    <g id="Group-2" data-name="Group">
      <circle id="Oval" class="cls-1" cx="17.417" cy="17.417" r="17.417" transform="translate(0.044 0.116)"/>
      <g id="Group-3" data-name="Group" transform="translate(5.229 7.408)">
        <circle id="Oval-2" data-name="Oval" class="cls-2" cx="1.83" cy="1.83" r="1.83" transform="translate(10.401 16.08)"/>
        <path id="Path-7" data-name="Path" class="cls-2" d="M23.794,6.638A2.291,2.291,0,0,0,22.007,5.8h0a1.548,1.548,0,0,1-1.365-.813.589.589,0,0,1-.073-.131c-.029-.044-.044-.087-.073-.131a1.277,1.277,0,0,1-.087-.145l-.087-.131-.087-.131-.087-.131-.087-.131-.087-.131a.8.8,0,0,0-.1-.131.8.8,0,0,0-.1-.131c-.029-.044-.073-.087-.1-.131a.392.392,0,0,0-.1-.116.83.83,0,0,0-.1-.116c-.029-.044-.073-.073-.1-.116s-.073-.073-.1-.116-.073-.073-.1-.116l-.116-.116-.116-.116L18.811,2.6c-.044-.029-.073-.073-.116-.1s-.087-.073-.116-.1-.073-.073-.116-.1-.087-.073-.131-.1-.073-.073-.116-.1-.087-.073-.131-.1a.392.392,0,0,1-.116-.1L17.838,1.8l-.131-.087-.131-.087-.131-.087a1.277,1.277,0,0,0-.145-.087l-.131-.087c-.044-.029-.1-.058-.145-.087a.589.589,0,0,0-.131-.073.679.679,0,0,0-.145-.073c-.044-.029-.087-.044-.131-.073s-.1-.044-.145-.073-.1-.044-.145-.073-.1-.044-.145-.073S16.08.8,16.037.77s-.1-.044-.145-.058-.1-.044-.145-.058-.1-.044-.16-.058-.1-.044-.145-.058-.116-.044-.16-.058-.1-.029-.145-.044-.116-.029-.16-.044-.1-.029-.145-.044L14.657.305c-.044-.015-.1-.029-.145-.044L14.337.218a.516.516,0,0,0-.145-.029A.729.729,0,0,0,14.018.16c-.044-.015-.1-.015-.145-.029S13.756.116,13.7.1s-.1-.015-.145-.029a.707.707,0,0,0-.174-.015c-.058,0-.1-.015-.16-.015S13.088.029,13.03.029s-.1-.015-.145-.015C12.8.015,12.71,0,12.623,0h-.872c-.087,0-.174.015-.247.015-.044,0-.1.015-.145.015s-.131.015-.189.015-.1.015-.16.015-.116.015-.174.015a.618.618,0,0,0-.16.029c-.058.015-.116.015-.174.029s-.1.015-.16.029-.116.015-.174.029a.618.618,0,0,1-.16.029L9.834.261c-.058.015-.1.029-.16.044s-.1.029-.16.044-.1.029-.145.044-.116.029-.16.044-.087.029-.145.044S8.948.523,8.89.537s-.1.044-.145.058-.1.044-.16.058S8.483.7,8.44.712s-.1.044-.16.058-.1.044-.145.058-.1.044-.145.073a1.35,1.35,0,0,1-.145.073c-.044.029-.1.044-.145.073s-.087.044-.131.073-.1.058-.145.087a1.277,1.277,0,0,1-.145.087l-.131.087-.131.087a1.277,1.277,0,0,1-.145.087l-.131.087-.131.087-.131.087L6.348,1.9a.392.392,0,0,0-.116.1c-.044.029-.087.073-.131.1s-.073.073-.116.1-.087.073-.131.1-.073.073-.116.1a.83.83,0,0,0-.116.1c-.044.029-.073.073-.116.1a.876.876,0,0,0-.116.116l-.116.116-.116.116a.728.728,0,0,0-.1.116c-.029.044-.073.073-.1.116s-.073.073-.1.116a.83.83,0,0,1-.1.116.728.728,0,0,1-.1.116c-.029.044-.073.087-.1.131a.806.806,0,0,1-.087.116c-.029.044-.073.087-.1.131l-.087.131a.8.8,0,0,1-.1.131l-.087.131-.087.131-.087.131a1.277,1.277,0,0,0-.087.145.589.589,0,0,0-.073.131A.454.454,0,0,0,3.675,5,1.577,1.577,0,0,1,2.31,5.81h0a2.087,2.087,0,0,0-.9.189,1.328,1.328,0,0,0-.2.1,2.271,2.271,0,0,0-.363.247,1.59,1.59,0,0,0-.16.145A2.282,2.282,0,0,0,0,8.135v2.978H0a2.087,2.087,0,0,0,.189.9,1.328,1.328,0,0,0,.1.2,2.271,2.271,0,0,0,.247.363,1.59,1.59,0,0,0,.145.16,2.282,2.282,0,0,0,1.641.683h.029a1.514,1.514,0,0,1,1.336.813.2.2,0,0,0,.044.058,3.674,3.674,0,0,0,.189.32.3.3,0,0,0,.058.087c.087.131.16.261.247.392.015.029.044.058.058.087l.218.305a.441.441,0,0,1,.073.1c.1.116.189.247.291.363L5,16.08c.044.058.087.1.131.16a8.11,8.11,0,0,0,.813.77,1.39,1.39,0,0,0,2.135-.45h0a1.4,1.4,0,0,0-.349-1.671,8.3,8.3,0,0,1-.8-.8,1.018,1.018,0,0,1-.116-.145c-.029-.029-.044-.058-.073-.087s-.073-.1-.116-.145-.044-.073-.073-.1-.073-.1-.1-.145-.044-.073-.073-.1a.882.882,0,0,0-.1-.145c-.029-.044-.044-.073-.073-.116a1.584,1.584,0,0,1-.087-.16c-.015-.044-.044-.073-.058-.116a.537.537,0,0,1-.073-.16c-.015-.044-.044-.087-.058-.131s-.044-.1-.073-.145S5.81,12.3,5.8,12.26s-.044-.1-.058-.145a1,1,0,0,0-.058-.145.607.607,0,0,0-.058-.145c-.015-.044-.029-.1-.044-.145s-.029-.1-.044-.145-.029-.1-.044-.16-.029-.1-.044-.145a.618.618,0,0,1-.029-.16c-.015-.044-.015-.1-.029-.145s-.015-.1-.029-.16a7.731,7.731,0,0,1-.087-1.177,6.884,6.884,0,0,1,13.6-1.424,6.637,6.637,0,0,1,.174,1.525v1.482a2.322,2.322,0,0,0,2.324,2.324h.639a2.331,2.331,0,0,0,2.324-2.324h0V8.193A2.42,2.42,0,0,0,23.794,6.638Z" transform="translate(0.073 0.116)"/>
      </g>
    </g>
  </g>
</svg>
