<svg xmlns="http://www.w3.org/2000/svg" width="22" height="22" viewBox="0 0 22 22">
  <path id="Path_3205" data-name="Path 3205" d="M96.89,72.46a14.776,14.776,0,0,0,.227-4.754c-.581.266-1.8.906-2.484.221l-1.011-1.011L92.611,65.9c-.686-.686-.046-1.9.22-2.483a14.767,14.767,0,0,0-4.753.227,10.857,10.857,0,0,1,3.062-4.826,6.97,6.97,0,0,1,4.381-1.07c3.17-4.425,8.2-8.234,14.35-7.085,1.149,6.148-2.66,11.18-7.085,14.35a6.974,6.974,0,0,1-1.07,4.381A10.858,10.858,0,0,1,96.89,72.46Zm8.135-16.947a2.295,2.295,0,1,1-3.245,0,2.295,2.295,0,0,1,3.245,0ZM91.582,66.586c-3.124.681-2.48,3.472-3.04,5.409,1.938-.559,4.728.084,5.409-3.04-.976.87-1.808,1.517-3.4,1.029-.489-1.59.158-2.422,1.028-3.4Z" transform="translate(-88.078 -50.46)" fill="rgba(255,255,255,0.3)" fill-rule="evenodd"/>
</svg>
