<svg id="Group" xmlns="http://www.w3.org/2000/svg" width="15.461" height="9.802" viewBox="0 0 15.461 9.802">
  <defs>
    <style>
      .cls-1 {
        fill: #fff;
      }
    </style>
  </defs>
  <path id="Path" class="cls-1" d="M.657,0A8.648,8.648,0,0,1,2.678.269a6.819,6.819,0,0,1,2,.825,1.685,1.685,0,0,1,.909,1.364V4.211H1.381V2.459A2.919,2.919,0,0,0,0,.034,4.923,4.923,0,0,1,.657,0Z" transform="translate(9.869 5.592)"/>
  <path id="Path-2" data-name="Path" class="cls-1" d="M4.935,0a8.442,8.442,0,0,1,2,.269,6.576,6.576,0,0,1,1.987.825,1.685,1.685,0,0,1,.909,1.364V4.211H0V2.459A1.685,1.685,0,0,1,.909,1.095a6.819,6.819,0,0,1,2-.825A8.648,8.648,0,0,1,4.935,0Z" transform="translate(0 5.592)"/>
  <path id="Path-3" data-name="Path" class="cls-1" d="M2.105,4.211a2.031,2.031,0,0,1-1.044-.286,2.136,2.136,0,0,1-.775-.775,2.047,2.047,0,0,1,0-2.088A2.136,2.136,0,0,1,1.061.286,2.031,2.031,0,0,1,2.105,0,1.987,1.987,0,0,1,3.141.286a2.11,2.11,0,0,1,.758.766,2.064,2.064,0,0,1,.278,1.053A2.064,2.064,0,0,1,3.9,3.158a2.11,2.11,0,0,1-.758.766A1.987,1.987,0,0,1,2.105,4.211Z" transform="translate(2.829)"/>
  <path id="Path-4" data-name="Path" class="cls-1" d="M2.105,4.211a2.031,2.031,0,0,1-1.044-.286,2.136,2.136,0,0,1-.775-.775,2.047,2.047,0,0,1,0-2.088A2.136,2.136,0,0,1,1.061.286a2.047,2.047,0,0,1,2.088,0,2.136,2.136,0,0,1,.775.775,2.047,2.047,0,0,1,0,2.088,2.136,2.136,0,0,1-.775.775A2.031,2.031,0,0,1,2.105,4.211Z" transform="translate(8.421)"/>
</svg>
