<svg id="account_balance_wallet" xmlns="http://www.w3.org/2000/svg" width="18" height="18" viewBox="0 0 18 18">
  <defs>
    <style>
      .cls-1 {
        fill: none;
      }

      .cls-2 {
        fill: #fff;
      }
    </style>
  </defs>
  <path id="Shape" class="cls-1" d="M0,0H18V18H0Z"/>
  <path id="_Shape_Color" data-name="🎨 Shape Color" class="cls-2" d="M12,13.5H1.5A1.5,1.5,0,0,1,0,12V1.5A1.5,1.5,0,0,1,1.5,0H12a1.5,1.5,0,0,1,1.5,1.5v.75H6.75a1.5,1.5,0,0,0-1.5,1.5v6a1.5,1.5,0,0,0,1.5,1.5H13.5V12A1.5,1.5,0,0,1,12,13.5Zm2.25-3.75H6.75v-6h7.5v6ZM9.75,5.625A1.125,1.125,0,1,0,10.875,6.75,1.126,1.126,0,0,0,9.75,5.625Z" transform="translate(2.25 2.25)"/>
</svg>
