<svg xmlns="http://www.w3.org/2000/svg" width="14" height="14" viewBox="0 0 14 14">
  <defs>
    <style>
      .cls-1 {
        fill: #fff;
      }
    </style>
  </defs>
  <path id="Shape_Copy" data-name="Shape Copy" class="cls-1" d="M12.444,14H1.555A1.557,1.557,0,0,1,0,12.444V1.555A1.557,1.557,0,0,1,1.555,0H12.444A1.557,1.557,0,0,1,14,1.555V12.444A1.558,1.558,0,0,1,12.444,14ZM2.334,7.778v3.889H6.223V7.778ZM7.778,8.944V10.5h3.888V8.944ZM2.334,2.334V6.223H6.223V2.334ZM7.778,3.5V5.055h3.888V3.5ZM5.444,10.889H3.111V8.555H5.444v2.333Zm0-5.445H3.111V3.111H5.444V5.443Z"/>
</svg>
